<?xml version="1.0" encoding="utf-8"?>
<svg version="1.1" xmlns:xlink="http://www.w3.org/1999/xlink" width="40px" height="50px" xmlns="http://www.w3.org/2000/svg">
  <defs>
    <filter x="5px" y="905px" width="40px" height="50px" filterUnits="userSpaceOnUse" id="filter27">
      <feOffset dx="1" dy="1" in="SourceAlpha" result="shadowOffsetInner" />
      <feGaussianBlur stdDeviation="2.5" in="shadowOffsetInner" result="shadowGaussian" />
      <feComposite in2="shadowGaussian" operator="atop" in="SourceAlpha" result="shadowComposite" />
      <feColorMatrix type="matrix" values="0 0 0 0 0  0 0 0 0 0  0 0 0 0 0  0 0 0 0.698039215686274 0  " in="shadowComposite" />
    </filter>
    <g id="widget28">
      <path d="M 24 948.036928468354  C 18.2 938.40734059591  9.5 932.629587872444  9.5 923  C 9.5 917.985714285714  12.4 909.5  24 909.5  C 35.6 909.5  38.5 917.985714285714  38.5 923  C 38.5 932.629587872444  29.8 938.40734059591  24 948.036928468354  Z " fill-rule="nonzero" fill="#009dd9" stroke="none" />
      <path d="M 24 949  C 18 939  9 933  9 923  C 9 917.8  12 909  24 909  C 36 909  39 917.8  39 923  C 39 933  30 939  24 949  Z M 24 947.073856936707  C 29.6 937.81468119182  38 932.259175744887  38 923  C 38 918.171428571429  35.2 910  24 910  C 12.8 910  10 918.171428571429  10 923  C 10 932.259175744887  18.4 937.81468119182  24 947.073856936707  Z " fill-rule="nonzero" fill="#ffffff" stroke="none" />
    </g>
  </defs>
  <g transform="matrix(1 0 0 1 -5 -905 )">
    <use xlink:href="#widget28" filter="url(#filter27)" />
    <use xlink:href="#widget28" />
  </g>
</svg>